Normalized EMG Linear Envelopes
nRows=131
nColumns=4

endheader
time	 med_gas_r	  soleus_r	 tib_ant_r	
3.1873	  0.098136	  0.140066	  0.049029	
3.24979	  0.102877	  0.144557	  0.048102	
3.31229	  0.107135	  0.149178	  0.047029	
3.37478	  0.109183	  0.158426	  0.047320	
3.43728	  0.110217	  0.168394	  0.048280	
3.49978	  0.109542	  0.172299	  0.049021	
3.56227	  0.107951	  0.172189	  0.048993	
3.62477	  0.105394	  0.170435	  0.052870	
3.68726	  0.100968	  0.175007	  0.071273	
3.74976	  0.094622	  0.193830	  0.118122	
3.81226	  0.089812	  0.213078	  0.200649	
3.87475	  0.091580	  0.224285	  0.308210	
3.93725	  0.103404	  0.227276	  0.418436	
3.99974	  0.126928	  0.215528	  0.513645	
4.06224	  0.162520	  0.196112	  0.593784	
4.12474	  0.205687	  0.183673	  0.642827	
4.18723	  0.241984	  0.181799	  0.682363	
4.24973	  0.260281	  0.186783	  0.728767	
4.31222	  0.276089	  0.197294	  0.782896	
4.37472	  0.293835	  0.208062	  0.845213	
4.43722	  0.311082	  0.214199	  0.896914	
4.49971	  0.328240	  0.213472	  0.938197	
4.56221	  0.340049	  0.210982	  0.969148	
4.6247	  0.357803	  0.208302	  0.991227	
4.6872	  0.388814	  0.202913	  0.995487	
4.7497	  0.420383	  0.193654	  0.940012	
4.81219	  0.430345	  0.185755	  0.865372	
4.87469	  0.428714	  0.184911	  0.816358	
4.93718	  0.420833	  0.191990	  0.802113	
4.99968	  0.414729	  0.204390	  0.808164	
5.06218	  0.416211	  0.220251	  0.802608	
5.12467	  0.425458	  0.240368	  0.766483	
5.18717	  0.441945	  0.256815	  0.725143	
5.24966	  0.466205	  0.264418	  0.699596	
5.31216	  0.491996	  0.265181	  0.705233	
5.37466	  0.517433	  0.262176	  0.754017	
5.43715	  0.527694	  0.261820	  0.822579	
5.49965	  0.529230	  0.270589	  0.870164	
5.56214	  0.528038	  0.287714	  0.866776	
5.62464	  0.523539	  0.308975	  0.841395	
5.68714	  0.515633	  0.326974	  0.843581	
5.74963	  0.528089	  0.333613	  0.864583	
5.81213	  0.562941	  0.325786	  0.866109	
5.87462	  0.600804	  0.318741	  0.831970	
5.93712	  0.627124	  0.328001	  0.804962	
5.99962	  0.639164	  0.357501	  0.799512	
6.06211	  0.656791	  0.395186	  0.809445	
6.12461	  0.676898	  0.423112	  0.838173	
6.1871	  0.684128	  0.431094	  0.865629	
6.2496	  0.684590	  0.422897	  0.862375	
6.3121	  0.670004	  0.419964	  0.819802	
6.37459	  0.656682	  0.425100	  0.786755	
6.43709	  0.654578	  0.445644	  0.789906	
6.49958	  0.655267	  0.464225	  0.816916	
6.56208	  0.661406	  0.465102	  0.851085	
6.62458	  0.655365	  0.462983	  0.886774	
6.68707	  0.648250	  0.466741	  0.922613	
6.74957	  0.654379	  0.485153	  0.943694	
6.81206	  0.656819	  0.512935	  0.945929	
6.87456	  0.659716	  0.532635	  0.924551	
6.93706	  0.652449	  0.520780	  0.889018	
6.99955	  0.639192	  0.478931	  0.826256	
7.06205	  0.630541	  0.435443	  0.745055	
7.12454	  0.634656	  0.418575	  0.678582	
7.18704	  0.639580	  0.430807	  0.649413	
7.24954	  0.653096	  0.453718	  0.650765	
7.31203	  0.668376	  0.479028	  0.673588	
7.37453	  0.679656	  0.506667	  0.693547	
7.43702	  0.678502	  0.526873	  0.728085	
7.49952	  0.667070	  0.511861	  0.788705	
7.56202	  0.654780	  0.470967	  0.827651	
7.62451	  0.636999	  0.427219	  0.818340	
7.68701	  0.619575	  0.399768	  0.786767	
7.7495	  0.614691	  0.388330	  0.770457	
7.812	  0.635046	  0.389550	  0.793265	
7.8745	  0.663141	  0.408757	  0.844364	
7.93699	  0.687725	  0.439069	  0.875794	
7.99949	  0.682219	  0.459606	  0.839927	
8.06198	  0.644059	  0.453176	  0.759397	
8.12448	  0.609302	  0.445470	  0.695712	
8.18698	  0.579884	  0.448122	  0.682619	
8.24947	  0.560038	  0.454555	  0.697648	
8.31197	  0.561508	  0.464567	  0.712781	
8.37446	  0.581411	  0.485187	  0.712899	
8.43696	  0.607052	  0.510346	  0.699156	
8.49946	  0.619451	  0.528036	  0.665581	
8.56195	  0.611870	  0.526933	  0.627694	
8.62445	  0.591195	  0.512512	  0.599112	
8.68694	  0.563604	  0.504268	  0.590240	
8.74944	  0.537846	  0.497741	  0.597614	
8.81194	  0.517530	  0.493382	  0.629756	
8.87443	  0.511323	  0.505844	  0.676907	
8.93693	  0.520834	  0.527887	  0.707597	
8.99942	  0.539688	  0.536728	  0.706441	
9.06192	  0.551674	  0.525180	  0.676242	
9.12442	  0.543829	  0.510682	  0.626468	
9.18691	  0.525340	  0.508829	  0.575878	
9.24941	  0.506303	  0.522775	  0.540738	
9.3119	  0.489273	  0.542167	  0.537359	
9.3744	  0.488777	  0.550257	  0.556755	
9.4369	  0.495450	  0.547249	  0.582025	
9.49939	  0.501850	  0.538865	  0.597250	
9.56189	  0.516113	  0.541458	  0.590660	
9.62438	  0.518415	  0.553946	  0.582728	
9.68688	  0.516729	  0.553715	  0.580593	
9.74938	  0.520124	  0.546469	  0.585608	
9.81187	  0.521988	  0.549201	  0.590484	
9.87437	  0.517076	  0.540888	  0.577329	
9.93686	  0.490470	  0.520132	  0.553914	
9.99936	  0.455328	  0.484683	  0.530970	
10.0619	  0.422297	  0.416907	  0.522917	
10.1244	  0.387930	  0.321433	  0.519070	
10.1868	  0.359856	  0.230706	  0.511748	
10.2493	  0.317690	  0.171417	  0.500270	
10.3118	  0.258956	  0.143991	  0.491460	
10.3743	  0.215257	  0.135586	  0.486738	
10.4368	  0.198807	  0.135671	  0.480086	
10.4993	  0.194623	  0.135786	  0.475620	
10.5618	  0.178238	  0.134444	  0.480964	
10.6243	  0.163151	  0.135585	  0.484005	
10.6868	  0.163345	  0.140966	  0.472807	
10.7493	  0.177763	  0.151070	  0.442940	
10.8118	  0.200972	  0.160963	  0.398370	
10.8743	  0.220597	  0.167361	  0.357582	
10.9368	  0.225151	  0.172438	  0.329437	
10.9993	  0.209016	  0.176636	  0.303020	
11.0618	  0.189110	  0.176643	  0.283474	
11.1243	  0.179740	  0.174652	  0.283712	
11.1868	  0.179679	  0.169612	  0.285242	
11.2493	  0.178816	  0.164053	  0.268377	
11.3118	  0.173132	  0.156714	  0.241673	
